<svg xmlns="http://www.w3.org/2000/svg" xmlns:xlink="http://www.w3.org/1999/xlink"><polygon points="0,200 1,100 2,99 3,100 4,99 5,100 6,101 7,102 8,103 9,102 10,103 11,104 12,105 13,106 14,107 15,108 16,109 17,108 18,107 19,106 20,107 21,106 22,105 23,104 24,103 25,102 26,101 27,100 28,101 29,100 30,101 31,102 32,103 33,102 34,103 35,102 36,103 37,102 38,103 39,104 40,105 41,106 42,107 43,108 44,107 45,106 46,107 47,106 48,105 49,106 50,107 51,108 52,109 53,110 54,109 55,108 56,109 57,108 58,109 59,110 60,111 61,110 62,109 63,110 64,111 65,112 66,113 67,112 68,113 69,112 70,111 71,110 72,109 73,108 74,107 75,108 76,107 77,106 78,105 79,106 80,105 81,104 82,105 83,106 84,105 85,104 86,105 87,104 88,103 89,102 90,103 91,104 92,105 93,104 94,105 95,104 96,105 97,106 98,107 99,108 100,107 101,108 102,109 103,110 104,109 105,110 106,111 107,110 108,111 109,112 110,111 111,110 112,109 113,108 114,107 115,108 116,109 117,110 118,111 119,112 120,113 121,114 122,113 123,112 124,111 125,110 126,109 127,110 128,109 129,110 130,109 131,110 132,109 133,110 134,111 135,110 136,109 137,108 138,109 139,110 140,111 141,112 142,111 143,112 144,111 145,110 146,111 147,110 148,111 149,110 150,109 151,108 152,109 153,110 154,111 155,112 156,113 157,112 158,113 159,114 160,113 161,112 162,113 163,114 164,115 165,116 166,115 167,114 168,113 169,112 170,113 171,112 172,113 173,112 174,113 175,114 176,115 177,114 178,115 179,116 180,115 181,114 182,113 183,112 184,111 185,110 186,109 187,108 188,109 189,108 190,109 191,108 192,107 193,106 194,105 195,104 196,103 197,102 198,103 199,102 200,101 201,100 202,101 203,102 204,101 205,102 206,103 207,102 208,103 209,102 210,101 211,100 212,99 213,98 214,97 215,98 216,97 217,96 218,95 219,96 220,95 221,94 222,95 223,94 224,93 225,92 226,93 227,94 228,95 229,94 230,95 231,94 232,95 233,94 234,95 235,94 236,95 237,96 238,97 239,98 240,97 241,98 242,99 243,98 244,99 245,100 246,101 247,102 248,103 249,104 250,103 251,102 252,103 253,102 254,103 255,102 256,103 257,102 258,103 259,104 260,103 261,104 262,105 263,104 264,105 265,106 266,105 267,104 268,105 269,106 270,105 271,104 272,103 273,102 274,103 275,102 276,103 277,104 278,103 279,104 280,105 281,106 282,105 283,104 284,103 285,102 286,101 287,102 288,101 289,102 290,101 291,102 292,101 293,102 294,101 295,102 296,101 297,102 298,103 299,102 300,103 301,102 302,101 303,102 304,101 305,102 306,101 307,102 308,101 309,102 310,103 311,102 312,101 313,100 314,101 315,102 316,101 317,100 318,101 319,100 320,101 321,102 322,103 323,104 324,105 325,106 326,107 327,108 328,109 329,110 330,109 331,108 332,109 333,108 334,107 335,108 336,107 337,106 338,105 339,104 340,103 341,102 342,101 343,102 344,101 345,102 346,101 347,102 348,101 349,100 350,101 351,100 352,101 353,102 354,103 355,102 356,101 357,102 358,103 359,102 360,103 361,104 362,105 363,106 364,105 365,104 366,105 367,106 368,105 369,106 370,107 371,108 372,109 373,108 374,109 375,108 376,107 377,108 378,109 379,110 380,111 381,110 382,111 383,110 384,109 385,110 386,109 387,108 388,107 389,108 390,107 391,106 392,105 393,106 394,105 395,104 396,105 397,106 398,107 399,106 400,105 400,200 " style="fill:rgb(181,20,231);stroke:rgb(81,0,131)"></polygon><polygon points="0,200 1,100 2,99 3,100 4,99 5,98 6,99 7,100 8,99 9,98 10,97 11,98 12,99 13,100 14,99 15,98 16,97 17,98 18,97 19,98 20,97 21,96 22,97 23,96 24,95 25,94 26,95 27,94 28,95 29,94 30,95 31,96 32,95 33,94 34,95 35,96 36,97 37,96 38,95 39,96 40,97 41,98 42,97 43,98 44,97 45,96 46,97 47,96 48,95 49,94 50,95 51,94 52,95 53,94 54,93 55,92 56,93 57,92 58,93 59,92 60,93 61,92 62,91 63,92 64,93 65,92 66,91 67,90 68,89 69,90 70,89 71,90 72,91 73,90 74,91 75,90 76,91 77,90 78,91 79,90 80,89 81,88 82,89 83,88 84,87 85,86 86,85 87,86 88,87 89,88 90,87 91,88 92,87 93,86 94,87 95,86 96,87 97,86 98,85 99,84 100,83 101,82 102,83 103,84 104,83 105,82 106,81 107,80 108,79 109,80 110,79 111,78 112,77 113,76 114,77 115,76 116,75 117,74 118,75 119,76 120,75 121,76 122,75 123,74 124,75 125,76 126,77 127,76 128,75 129,76 130,77 131,78 132,77 133,76 134,77 135,76 136,77 137,78 138,77 139,76 140,75 141,74 142,75 143,74 144,73 145,72 146,73 147,74 148,75 149,76 150,77 151,78 152,77 153,76 154,75 155,76 156,77 157,78 158,77 159,76 160,77 161,76 162,75 163,76 164,75 165,76 166,77 167,76 168,77 169,78 170,79 171,78 172,79 173,80 174,81 175,82 176,83 177,82 178,81 179,82 180,81 181,80 182,81 183,80 184,79 185,80 186,81 187,82 188,81 189,82 190,83 191,84 192,85 193,84 194,83 195,82 196,81 197,80 198,81 199,80 200,79 201,80 202,79 203,80 204,79 205,78 206,77 207,76 208,77 209,76 210,77 211,78 212,79 213,78 214,77 215,78 216,79 217,78 218,79 219,80 220,81 221,82 222,81 223,82 224,81 225,80 226,79 227,78 228,79 229,80 230,81 231,82 232,81 233,80 234,79 235,80 236,81 237,82 238,83 239,84 240,85 241,86 242,85 243,86 244,87 245,86 246,87 247,86 248,87 249,88 250,89 251,88 252,89 253,88 254,87 255,88 256,87 257,86 258,85 259,86 260,85 261,84 262,85 263,86 264,85 265,86 266,85 267,84 268,83 269,82 270,83 271,84 272,83 273,82 274,83 275,84 276,83 277,84 278,83 279,82 280,83 281,84 282,83 283,84 284,83 285,84 286,85 287,86 288,87 289,88 290,87 291,86 292,87 293,88 294,89 295,90 296,91 297,92 298,91 299,92 300,93 301,94 302,93 303,94 304,95 305,94 306,95 307,96 308,97 309,96 310,95 311,94 312,95 313,94 314,93 315,92 316,93 317,94 318,95 319,94 320,95 321,96 322,95 323,96 324,97 325,98 326,97 327,98 328,97 329,96 330,97 331,96 332,95 333,96 334,95 335,94 336,93 337,92 338,93 339,92 340,91 341,92 342,93 343,92 344,91 345,92 346,91 347,90 348,91 349,90 350,89 351,88 352,89 353,88 354,89 355,90 356,89 357,90 358,89 359,88 360,89 361,90 362,89 363,88 364,87 365,86 366,85 367,86 368,85 369,86 370,87 371,88 372,87 373,86 374,85 375,86 376,85 377,86 378,87 379,88 380,87 381,88 382,89 383,88 384,87 385,86 386,85 387,86 388,87 389,86 390,87 391,86 392,87 393,86 394,85 395,86 396,87 397,88 398,89 399,90 400,91 400,200 " style="fill:rgb(65,210,107);stroke:rgb(0,110,7)"></polygon><polygon points="0,200 1,100 2,101 3,100 4,99 5,98 6,97 7,98 8,99 9,98 10,99 11,100 12,101 13,100 14,101 15,100 16,101 17,102 18,101 19,102 20,101 21,102 22,103 23,104 24,103 25,102 26,103 27,104 28,105 29,104 30,103 31,104 32,103 33,102 34,103 35,102 36,103 37,104 38,105 39,106 40,107 41,108 42,107 43,106 44,107 45,106 46,105 47,106 48,107 49,106 50,107 51,108 52,109 53,108 54,107 55,108 56,109 57,110 58,111 59,112 60,111 61,112 62,111 63,110 64,111 65,110 66,111 67,110 68,111 69,112 70,113 71,112 72,113 73,112 74,111 75,110 76,111 77,112 78,113 79,114 80,113 81,114 82,113 83,112 84,113 85,114 86,113 87,114 88,113 89,112 90,113 91,112 92,113 93,112 94,113 95,114 96,113 97,112 98,113 99,112 100,111 101,112 102,113 103,114 104,113 105,114 106,115 107,116 108,117 109,118 110,117 111,116 112,115 113,114 114,115 115,114 116,113 117,114 118,115 119,116 120,117 121,118 122,119 123,118 124,119 125,120 126,121 127,120 128,121 129,122 130,121 131,122 132,121 133,120 134,121 135,122 136,121 137,122 138,123 139,122 140,121 141,122 142,123 143,122 144,123 145,122 146,121 147,122 148,121 149,122 150,121 151,120 152,119 153,120 154,121 155,122 156,123 157,122 158,121 159,120 160,119 161,118 162,119 163,120 164,119 165,118 166,119 167,118 168,117 169,116 170,117 171,116 172,115 173,114 174,115 175,114 176,113 177,114 178,113 179,112 180,113 181,112 182,113 183,114 184,113 185,112 186,113 187,114 188,113 189,114 190,115 191,114 192,115 193,116 194,117 195,116 196,115 197,114 198,115 199,114 200,115 201,116 202,115 203,116 204,115 205,114 206,113 207,112 208,111 209,112 210,113 211,114 212,113 213,112 214,113 215,112 216,113 217,112 218,111 219,112 220,113 221,114 222,113 223,112 224,113 225,114 226,113 227,112 228,113 229,114 230,113 231,114 232,115 233,116 234,115 235,114 236,113 237,112 238,111 239,110 240,111 241,110 242,111 243,112 244,113 245,112 246,113 247,112 248,111 249,110 250,111 251,110 252,109 253,110 254,109 255,108 256,109 257,108 258,107 259,106 260,107 261,106 262,105 263,106 264,107 265,106 266,107 267,108 268,107 269,108 270,107 271,108 272,109 273,108 274,107 275,106 276,105 277,104 278,103 279,104 280,103 281,104 282,103 283,104 284,105 285,104 286,105 287,104 288,105 289,104 290,103 291,104 292,103 293,102 294,103 295,102 296,101 297,102 298,101 299,100 300,101 301,102 302,103 303,104 304,103 305,102 306,103 307,102 308,101 309,102 310,103 311,104 312,105 313,104 314,103 315,102 316,103 317,102 318,103 319,102 320,101 321,100 322,99 323,100 324,99 325,98 326,97 327,98 328,99 329,100 330,101 331,102 332,101 333,102 334,103 335,104 336,103 337,102 338,103 339,104 340,103 341,104 342,103 343,102 344,103 345,104 346,105 347,106 348,107 349,106 350,105 351,106 352,107 353,108 354,107 355,106 356,107 357,108 358,109 359,108 360,107 361,106 362,107 363,108 364,109 365,108 366,107 367,108 368,107 369,106 370,105 371,104 372,105 373,106 374,107 375,108 376,109 377,110 378,109 379,108 380,107 381,108 382,109 383,110 384,111 385,110 386,111 387,110 388,111 389,112 390,113 391,114 392,113 393,112 394,113 395,114 396,115 397,114 398,115 399,116 400,117 400,200 " style="fill:rgb(142,146,187);stroke:rgb(42,46,87)"></polygon><polygon points="0,200 1,100 2,101 3,100 4,101 5,100 6,99 7,98 8,97 9,96 10,95 11,96 12,95 13,96 14,95 15,94 16,95 17,96 18,95 19,94 20,95 21,94 22,95 23,94 24,93 25,92 26,93 27,92 28,93 29,92 30,93 31,94 32,93 33,94 34,93 35,94 36,95 37,96 38,97 39,96 40,97 41,96 42,97 43,98 44,97 45,96 46,97 47,98 48,97 49,98 50,99 51,98 52,97 53,98 54,97 55,96 56,95 57,96 58,95 59,96 60,97 61,96 62,95 63,94 64,93 65,94 66,95 67,96 68,95 69,96 70,95 71,96 72,95 73,96 74,95 75,96 76,97 77,98 78,97 79,98 80,99 81,98 82,97 83,96 84,97 85,96 86,95 87,96 88,95 89,96 90,97 91,98 92,99 93,98 94,97 95,98 96,97 97,96 98,97 99,98 100,97 101,96 102,97 103,98 104,97 105,98 106,99 107,98 108,97 109,98 110,99 111,98 112,99 113,98 114,97 115,98 116,99 117,98 118,99 119,98 120,99 121,98 122,97 123,98 124,99 125,100 126,99 127,100 128,99 129,98 130,97 131,96 132,97 133,98 134,97 135,96 136,97 137,96 138,97 139,96 140,97 141,96 142,97 143,98 144,99 145,100 146,101 147,100 148,99 149,98 150,99 151,98 152,97 153,96 154,97 155,98 156,97 157,96 158,95 159,96 160,97 161,96 162,95 163,94 164,95 165,96 166,95 167,96 168,95 169,94 170,95 171,96 172,95 173,96 174,95 175,96 176,97 177,96 178,95 179,94 180,93 181,92 182,91 183,90 184,89 185,88 186,89 187,88 188,89 189,88 190,87 191,88 192,87 193,86 194,85 195,86 196,87 197,88 198,87 199,86 200,87 201,88 202,89 203,90 204,89 205,90 206,89 207,88 208,89 209,88 210,87 211,86 212,85 213,84 214,83 215,82 216,83 217,84 218,83 219,82 220,81 221,80 222,81 223,80 224,79 225,78 226,77 227,78 228,79 229,78 230,79 231,78 232,77 233,76 234,77 235,78 236,77 237,76 238,77 239,78 240,77 241,78 242,77 243,76 244,77 245,78 246,77 247,76 248,77 249,78 250,79 251,80 252,81 253,82 254,83 255,82 256,81 257,80 258,81 259,80 260,81 261,82 262,81 263,82 264,81 265,82 266,83 267,82 268,81 269,82 270,83 271,84 272,83 273,82 274,81 275,82 276,81 277,80 278,81 279,82 280,81 281,82 282,83 283,82 284,83 285,84 286,83 287,84 288,83 289,82 290,83 291,82 292,81 293,82 294,81 295,80 296,81 297,82 298,83 299,84 300,83 301,82 302,81 303,82 304,81 305,82 306,83 307,84 308,85 309,86 310,85 311,86 312,85 313,84 314,85 315,84 316,83 317,82 318,83 319,82 320,81 321,80 322,81 323,80 324,81 325,80 326,79 327,78 328,77 329,78 330,77 331,78 332,79 333,80 334,79 335,78 336,79 337,80 338,81 339,82 340,81 341,80 342,81 343,82 344,81 345,80 346,81 347,82 348,81 349,80 350,81 351,82 352,83 353,82 354,83 355,84 356,83 357,82 358,83 359,84 360,83 361,82 362,83 363,82 364,81 365,82 366,83 367,82 368,83 369,84 370,83 371,84 372,83 373,84 374,83 375,84 376,85 377,84 378,85 379,84 380,85 381,84 382,83 383,84 384,85 385,86 386,85 387,84 388,83 389,84 390,85 391,86 392,87 393,86 394,87 395,86 396,87 397,86 398,87 399,88 400,89 400,200 " style="fill:rgb(83,76,42);stroke:rgb(0,0,0)"></polygon><polygon points="0,200 1,100 2,101 3,102 4,101 5,102 6,103 7,104 8,105 9,104 10,105 11,106 12,107 13,106 14,105 15,106 16,107 17,108 18,107 19,106 20,105 21,104 22,105 23,104 24,103 25,102 26,101 27,102 28,103 29,102 30,101 31,100 32,101 33,102 34,101 35,102 36,101 37,100 38,101 39,100 40,101 41,102 42,101 43,102 44,101 45,100 46,99 47,100 48,101 49,100 50,99 51,98 52,97 53,96 54,97 55,98 56,99 57,100 58,101 59,100 60,99 61,100 62,101 63,102 64,103 65,102 66,103 67,102 68,103 69,104 70,103 71,102 72,103 73,104 74,103 75,102 76,101 77,100 78,99 79,100 80,99 81,98 82,97 83,98 84,99 85,100 86,101 87,100 88,99 89,100 90,99 91,100 92,99 93,100 94,99 95,98 96,97 97,98 98,97 99,96 100,97 101,96 102,97 103,96 104,97 105,98 106,97 107,98 108,97 109,98 110,97 111,96 112,97 113,96 114,97 115,96 116,97 117,96 118,95 119,94 120,93 121,94 122,93 123,94 124,95 125,94 126,95 127,96 128,95 129,96 130,95 131,94 132,93 133,92 134,93 135,94 136,95 137,96 138,97 139,98 140,99 141,98 142,97 143,98 144,97 145,98 146,97 147,96 148,97 149,98 150,97 151,96 152,95 153,96 154,95 155,96 156,97 157,98 158,99 159,98 160,97 161,98 162,99 163,98 164,99 165,98 166,99 167,100 168,99 169,98 170,99 171,100 172,101 173,102 174,101 175,102 176,101 177,100 178,99 179,98 180,99 181,100 182,99 183,98 184,97 185,96 186,95 187,96 188,95 189,96 190,97 191,98 192,97 193,96 194,97 195,98 196,97 197,96 198,95 199,96 200,95 201,96 202,95 203,96 204,97 205,96 206,97 207,96 208,95 209,94 210,95 211,96 212,95 213,94 214,95 215,94 216,93 217,92 218,93 219,94 220,93 221,94 222,95 223,94 224,93 225,94 226,93 227,92 228,91 229,92 230,93 231,94 232,93 233,92 234,93 235,92 236,91 237,92 238,91 239,92 240,93 241,92 242,91 243,90 244,89 245,90 246,89 247,90 248,91 249,90 250,91 251,92 252,91 253,92 254,91 255,92 256,93 257,92 258,91 259,90 260,91 261,90 262,89 263,88 264,87 265,86 266,87 267,86 268,87 269,88 270,87 271,88 272,89 273,90 274,91 275,90 276,91 277,90 278,91 279,92 280,93 281,92 282,91 283,92 284,91 285,92 286,91 287,90 288,89 289,88 290,87 291,86 292,87 293,86 294,85 295,86 296,87 297,86 298,87 299,86 300,87 301,88 302,87 303,86 304,87 305,88 306,87 307,88 308,87 309,86 310,87 311,86 312,87 313,86 314,85 315,84 316,85 317,86 318,85 319,86 320,87 321,86 322,85 323,86 324,87 325,86 326,87 327,86 328,87 329,88 330,87 331,88 332,89 333,88 334,87 335,88 336,89 337,88 338,89 339,88 340,87 341,86 342,85 343,84 344,85 345,86 346,87 347,88 348,89 349,88 350,89 351,88 352,87 353,86 354,85 355,86 356,85 357,86 358,85 359,86 360,85 361,84 362,83 363,82 364,83 365,84 366,85 367,84 368,85 369,86 370,87 371,86 372,87 373,88 374,87 375,88 376,87 377,88 378,89 379,88 380,87 381,86 382,85 383,86 384,87 385,86 386,85 387,84 388,85 389,86 390,85 391,84 392,85 393,86 394,85 395,86 396,87 397,86 398,87 399,86 400,85 400,200 " style="fill:rgb(119,185,24);stroke:rgb(19,85,0)"></polygon><polygon points="0,200 1,100 2,99 3,100 4,99 5,100 6,99 7,98 8,99 9,100 10,101 11,102 12,101 13,102 14,101 15,100 16,99 17,100 18,101 19,100 20,99 21,100 22,99 23,100 24,101 25,100 26,99 27,98 28,99 29,98 30,97 31,98 32,99 33,98 34,97 35,98 36,99 37,98 38,97 39,96 40,95 41,96 42,97 43,98 44,97 45,98 46,97 47,98 48,99 49,98 50,97 51,96 52,95 53,96 54,97 55,96 56,95 57,96 58,95 59,94 60,95 61,96 62,95 63,96 64,97 65,96 66,97 67,96 68,97 69,98 70,99 71,98 72,97 73,96 74,97 75,96 76,95 77,96 78,97 79,96 80,95 81,94 82,93 83,94 84,93 85,92 86,91 87,90 88,91 89,90 90,91 91,90 92,91 93,92 94,91 95,92 96,91 97,92 98,91 99,90 100,89 101,88 102,89 103,90 104,91 105,90 106,91 107,90 108,91 109,90 110,89 111,88 112,87 113,88 114,89 115,88 116,89 117,90 118,89 119,88 120,89 121,88 122,89 123,88 124,87 125,88 126,87 127,88 128,87 129,88 130,89 131,88 132,89 133,88 134,89 135,88 136,89 137,88 138,89 139,88 140,87 141,88 142,87 143,86 144,87 145,88 146,87 147,88 148,87 149,86 150,87 151,88 152,89 153,88 154,87 155,86 156,85 157,84 158,85 159,86 160,87 161,88 162,89 163,90 164,89 165,88 166,89 167,90 168,89 169,88 170,87 171,88 172,89 173,90 174,91 175,92 176,93 177,92 178,91 179,90 180,89 181,90 182,91 183,92 184,91 185,90 186,89 187,88 188,89 189,88 190,89 191,90 192,89 193,88 194,87 195,86 196,85 197,86 198,87 199,86 200,85 201,84 202,85 203,86 204,87 205,88 206,87 207,88 208,87 209,86 210,85 211,84 212,83 213,84 214,85 215,86 216,87 217,86 218,85 219,84 220,85 221,84 222,83 223,82 224,81 225,80 226,81 227,80 228,81 229,80 230,81 231,80 232,81 233,80 234,79 235,80 236,81 237,80 238,81 239,80 240,79 241,80 242,79 243,80 244,79 245,78 246,79 247,78 248,77 249,76 250,77 251,76 252,77 253,78 254,77 255,76 256,75 257,74 258,75 259,76 260,77 261,78 262,79 263,78 264,79 265,80 266,79 267,80 268,79 269,80 270,79 271,80 272,81 273,80 274,79 275,80 276,81 277,80 278,81 279,80 280,81 281,80 282,79 283,78 284,77 285,76 286,77 287,78 288,77 289,78 290,79 291,78 292,79 293,80 294,81 295,80 296,81 297,80 298,79 299,80 300,79 301,78 302,77 303,78 304,77 305,78 306,79 307,80 308,81 309,80 310,79 311,78 312,79 313,80 314,79 315,78 316,77 317,78 318,79 319,78 320,79 321,80 322,79 323,80 324,81 325,80 326,81 327,82 328,83 329,84 330,83 331,84 332,83 333,82 334,81 335,80 336,81 337,82 338,83 339,82 340,81 341,80 342,79 343,80 344,81 345,82 346,83 347,84 348,85 349,86 350,85 351,84 352,83 353,82 354,83 355,82 356,83 357,84 358,85 359,86 360,87 361,88 362,89 363,90 364,91 365,92 366,93 367,92 368,91 369,90 370,89 371,90 372,89 373,88 374,89 375,88 376,87 377,88 378,89 379,88 380,87 381,86 382,87 383,86 384,87 385,88 386,87 387,86 388,87 389,86 390,87 391,86 392,85 393,86 394,85 395,84 396,85 397,84 398,83 399,82 400,83 400,200 " style="fill:rgb(110,77,51);stroke:rgb(10,0,0)"></polygon><polygon points="0,200 1,100 2,101 3,100 4,101 5,102 6,103 7,104 8,105 9,106 10,107 11,106 12,105 13,104 14,105 15,106 16,107 17,108 18,109 19,110 20,111 21,110 22,109 23,110 24,109 25,110 26,109 27,108 28,109 29,110 30,109 31,108 32,107 33,108 34,109 35,108 36,107 37,106 38,107 39,106 40,107 41,108 42,107 43,108 44,109 45,108 46,109 47,110 48,109 49,108 50,107 51,106 52,107 53,108 54,107 55,108 56,107 57,108 58,109 59,108 60,107 61,106 62,107 63,106 64,105 65,106 66,105 67,106 68,105 69,104 70,103 71,102 72,103 73,104 74,103 75,102 76,103 77,104 78,103 79,102 80,103 81,102 82,101 83,102 84,103 85,102 86,101 87,102 88,103 89,102 90,103 91,102 92,103 93,104 94,103 95,102 96,101 97,102 98,103 99,104 100,105 101,104 102,103 103,104 104,103 105,104 106,103 107,102 108,103 109,102 110,103 111,104 112,103 113,102 114,103 115,102 116,103 117,102 118,101 119,102 120,101 121,100 122,99 123,100 124,99 125,100 126,101 127,100 128,99 129,98 130,97 131,98 132,99 133,98 134,99 135,100 136,99 137,98 138,99 139,100 140,101 141,100 142,101 143,102 144,101 145,100 146,101 147,102 148,101 149,100 150,101 151,102 152,101 153,102 154,101 155,100 156,99 157,100 158,99 159,100 160,99 161,98 162,97 163,98 164,99 165,100 166,101 167,100 168,101 169,102 170,101 171,102 172,103 173,102 174,101 175,102 176,103 177,104 178,103 179,104 180,103 181,102 182,103 183,104 184,103 185,104 186,105 187,106 188,107 189,106 190,107 191,106 192,105 193,106 194,105 195,106 196,105 197,106 198,107 199,106 200,107 201,106 202,107 203,108 204,109 205,108 206,109 207,110 208,111 209,110 210,111 211,112 212,111 213,110 214,111 215,110 216,111 217,112 218,113 219,114 220,115 221,114 222,115 223,116 224,115 225,116 226,115 227,114 228,113 229,112 230,111 231,112 232,111 233,110 234,109 235,108 236,109 237,108 238,107 239,106 240,107 241,108 242,109 243,110 244,109 245,110 246,111 247,110 248,109 249,108 250,109 251,108 252,109 253,110 254,109 255,110 256,111 257,112 258,113 259,112 260,111 261,112 262,113 263,114 264,113 265,112 266,113 267,112 268,111 269,110 270,111 271,112 272,113 273,114 274,113 275,112 276,113 277,114 278,113 279,112 280,113 281,112 282,113 283,112 284,111 285,110 286,111 287,112 288,111 289,112 290,111 291,112 292,113 293,112 294,111 295,112 296,113 297,114 298,115 299,116 300,115 301,116 302,115 303,114 304,113 305,114 306,115 307,116 308,115 309,114 310,115 311,114 312,113 313,112 314,113 315,112 316,113 317,112 318,111 319,112 320,111 321,110 322,111 323,110 324,109 325,110 326,111 327,110 328,111 329,112 330,113 331,114 332,113 333,114 334,115 335,114 336,115 337,116 338,117 339,118 340,119 341,120 342,121 343,120 344,121 345,122 346,123 347,124 348,123 349,122 350,121 351,120 352,119 353,118 354,117 355,118 356,119 357,118 358,117 359,116 360,115 361,114 362,113 363,112 364,111 365,112 366,113 367,112 368,111 369,110 370,109 371,110 372,109 373,110 374,109 375,110 376,111 377,110 378,109 379,108 380,109 381,110 382,111 383,110 384,109 385,110 386,111 387,112 388,113 389,114 390,113 391,112 392,113 393,112 394,111 395,110 396,111 397,110 398,109 399,108 400,107 400,200 " style="fill:rgb(232,30,126);stroke:rgb(132,0,26)"></polygon><polygon points="0,200 1,100 2,99 3,98 4,97 5,96 6,97 7,96 8,97 9,96 10,95 11,96 12,95 13,96 14,95 15,96 16,97 17,98 18,97 19,96 20,95 21,96 22,95 23,94 24,95 25,96 26,95 27,94 28,93 29,94 30,93 31,92 32,93 33,94 34,95 35,94 36,93 37,92 38,91 39,90 40,91 41,90 42,89 43,90 44,91 45,90 46,91 47,92 48,91 49,90 50,89 51,90 52,91 53,90 54,89 55,88 56,87 57,88 58,89 59,90 60,89 61,90 62,89 63,90 64,89 65,90 66,91 67,92 68,93 69,92 70,93 71,94 72,93 73,92 74,93 75,92 76,93 77,94 78,95 79,94 80,95 81,94 82,95 83,96 84,97 85,96 86,97 87,96 88,97 89,96 90,95 91,96 92,95 93,96 94,95 95,94 96,95 97,94 98,93 99,92 100,93 101,94 102,95 103,94 104,93 105,92 106,93 107,92 108,91 109,92 110,91 111,92 112,93 113,94 114,93 115,92 116,93 117,92 118,91 119,90 120,89 121,90 122,89 123,90 124,89 125,90 126,89 127,90 128,91 129,92 130,93 131,92 132,91 133,92 134,91 135,92 136,93 137,94 138,95 139,94 140,93 141,92 142,93 143,92 144,93 145,94 146,93 147,92 148,93 149,94 150,95 151,96 152,97 153,96 154,97 155,96 156,95 157,96 158,97 159,98 160,99 161,98 162,99 163,98 164,97 165,98 166,97 167,98 168,99 169,98 170,99 171,100 172,101 173,100 174,99 175,98 176,97 177,96 178,97 179,96 180,97 181,98 182,97 183,98 184,99 185,98 186,99 187,98 188,97 189,96 190,95 191,94 192,95 193,96 194,97 195,96 196,95 197,96 198,95 199,96 200,97 201,98 202,97 203,96 204,95 205,96 206,97 207,98 208,97 209,96 210,97 211,98 212,97 213,98 214,97 215,96 216,95 217,96 218,97 219,98 220,99 221,98 222,97 223,96 224,95 225,96 226,97 227,98 228,99 229,100 230,99 231,100 232,99 233,98 234,99 235,98 236,97 237,96 238,95 239,96 240,97 241,98 242,97 243,96 244,95 245,96 246,95 247,94 248,93 249,92 250,91 251,90 252,89 253,90 254,91 255,90 256,89 257,88 258,89 259,90 260,91 261,90 262,89 263,90 264,89 265,90 266,89 267,90 268,89 269,90 270,91 271,92 272,91 273,92 274,91 275,90 276,91 277,92 278,91 279,92 280,93 281,94 282,95 283,94 284,95 285,96 286,97 287,96 288,95 289,96 290,97 291,96 292,97 293,96 294,97 295,98 296,99 297,98 298,99 299,100 300,101 301,102 302,101 303,102 304,103 305,102 306,101 307,102 308,101 309,100 310,101 311,102 312,101 313,100 314,101 315,102 316,103 317,102 318,101 319,102 320,101 321,100 322,101 323,100 324,99 325,98 326,99 327,100 328,101 329,102 330,103 331,102 332,103 333,104 334,105 335,104 336,103 337,102 338,101 339,102 340,103 341,102 342,103 343,104 344,103 345,102 346,103 347,104 348,103 349,104 350,105 351,106 352,105 353,106 354,107 355,106 356,105 357,104 358,105 359,106 360,105 361,104 362,103 363,104 364,105 365,104 366,105 367,106 368,105 369,106 370,107 371,106 372,107 373,106 374,105 375,106 376,107 377,108 378,107 379,108 380,109 381,110 382,109 383,108 384,109 385,110 386,111 387,110 388,109 389,110 390,109 391,108 392,107 393,108 394,109 395,110 396,109 397,108 398,109 399,108 400,107 400,200 " style="fill:rgb(100,106,172);stroke:rgb(0,6,72)"></polygon><polygon points="0,200 1,100 2,99 3,100 4,101 5,102 6,103 7,104 8,105 9,104 10,105 11,104 12,105 13,104 14,105 15,104 16,103 17,104 18,105 19,104 20,103 21,102 22,103 23,102 24,103 25,102 26,101 27,102 28,101 29,100 30,99 31,100 32,101 33,100 34,99 35,100 36,99 37,100 38,101 39,100 40,101 41,100 42,101 43,102 44,101 45,102 46,101 47,100 48,99 49,100 50,101 51,102 52,103 53,102 54,103 55,102 56,103 57,104 58,103 59,102 60,101 61,100 62,99 63,100 64,99 65,98 66,97 67,96 68,95 69,94 70,95 71,96 72,97 73,96 74,95 75,96 76,95 77,94 78,95 79,94 80,93 81,92 82,93 83,92 84,93 85,92 86,91 87,90 88,91 89,92 90,93 91,92 92,93 93,92 94,91 95,92 96,93 97,94 98,95 99,96 100,95 101,96 102,97 103,96 104,97 105,98 106,99 107,100 108,99 109,100 110,99 111,98 112,97 113,98 114,97 115,98 116,99 117,98 118,99 119,100 120,99 121,98 122,97 123,96 124,95 125,94 126,93 127,92 128,91 129,92 130,91 131,90 132,89 133,88 134,89 135,88 136,87 137,88 138,89 139,88 140,87 141,88 142,87 143,88 144,89 145,88 146,87 147,86 148,87 149,88 150,89 151,90 152,89 153,90 154,91 155,92 156,93 157,92 158,93 159,92 160,91 161,90 162,91 163,92 164,91 165,92 166,93 167,94 168,95 169,96 170,95 171,96 172,97 173,98 174,99 175,100 176,99 177,98 178,97 179,98 180,97 181,98 182,99 183,100 184,101 185,100 186,99 187,100 188,99 189,100 190,99 191,98 192,99 193,98 194,99 195,100 196,101 197,102 198,101 199,100 200,99 201,100 202,101 203,100 204,101 205,102 206,103 207,104 208,103 209,102 210,103 211,102 212,103 213,102 214,103 215,104 216,105 217,106 218,105 219,106 220,107 221,106 222,105 223,104 224,103 225,104 226,103 227,102 228,101 229,100 230,99 231,98 232,99 233,100 234,99 235,98 236,97 237,98 238,97 239,98 240,97 241,98 242,99 243,100 244,99 245,98 246,99 247,100 248,101 249,100 250,99 251,98 252,97 253,98 254,97 255,98 256,99 257,98 258,97 259,96 260,97 261,96 262,95 263,94 264,95 265,96 266,95 267,96 268,95 269,96 270,95 271,96 272,97 273,98 274,99 275,100 276,101 277,102 278,103 279,102 280,101 281,102 282,103 283,104 284,105 285,106 286,105 287,104 288,105 289,104 290,103 291,102 292,101 293,100 294,99 295,100 296,99 297,98 298,99 299,98 300,97 301,96 302,95 303,94 304,95 305,94 306,95 307,96 308,97 309,96 310,97 311,98 312,97 313,96 314,95 315,96 316,95 317,94 318,95 319,96 320,97 321,98 322,97 323,98 324,99 325,98 326,99 327,100 328,101 329,102 330,101 331,100 332,101 333,100 334,101 335,102 336,103 337,102 338,103 339,104 340,105 341,104 342,105 343,106 344,105 345,106 346,105 347,106 348,105 349,104 350,105 351,104 352,103 353,102 354,103 355,104 356,103 357,102 358,101 359,100 360,99 361,98 362,99 363,100 364,101 365,100 366,101 367,100 368,99 369,98 370,97 371,96 372,95 373,94 374,95 375,96 376,97 377,98 378,99 379,100 380,101 381,102 382,101 383,102 384,103 385,104 386,105 387,104 388,103 389,102 390,101 391,100 392,99 393,100 394,101 395,102 396,103 397,104 398,103 399,102 400,101 400,200 " style="fill:rgb(180,248,239);stroke:rgb(80,148,139)"></polygon><polygon points="0,200 1,100 2,101 3,102 4,103 5,104 6,103 7,104 8,105 9,104 10,103 11,102 12,103 13,104 14,105 15,106 16,105 17,104 18,103 19,104 20,105 21,104 22,103 23,104 24,105 25,104 26,105 27,106 28,107 29,108 30,109 31,108 32,109 33,108 34,109 35,110 36,111 37,112 38,111 39,112 40,113 41,114 42,115 43,116 44,115 45,116 46,115 47,116 48,115 49,114 50,115 51,116 52,117 53,116 54,117 55,118 56,117 57,118 58,117 59,118 60,117 61,116 62,115 63,114 64,113 65,112 66,113 67,114 68,113 69,114 70,115 71,116 72,115 73,116 74,117 75,116 76,115 77,114 78,115 79,114 80,113 81,114 82,113 83,112 84,113 85,112 86,111 87,112 88,111 89,112 90,111 91,112 92,111 93,112 94,111 95,112 96,113 97,112 98,113 99,114 100,113 101,114 102,113 103,112 104,113 105,114 106,113 107,114 108,113 109,112 110,113 111,114 112,113 113,112 114,111 115,112 116,111 117,110 118,111 119,110 120,111 121,112 122,111 123,112 124,111 125,112 126,113 127,114 128,115 129,116 130,117 131,118 132,119 133,118 134,119 135,118 136,117 137,118 138,119 139,120 140,119 141,118 142,117 143,118 144,119 145,120 146,121 147,120 148,121 149,122 150,121 151,122 152,121 153,120 154,121 155,122 156,121 157,120 158,121 159,122 160,121 161,122 162,121 163,120 164,121 165,122 166,123 167,124 168,125 169,126 170,127 171,128 172,127 173,126 174,125 175,124 176,125 177,124 178,125 179,126 180,127 181,128 182,129 183,128 184,127 185,128 186,129 187,128 188,127 189,128 190,129 191,128 192,127 193,126 194,127 195,128 196,129 197,128 198,129 199,128 200,127 201,126 202,125 203,124 204,123 205,124 206,123 207,124 208,123 209,124 210,125 211,126 212,125 213,126 214,127 215,126 216,125 217,126 218,125 219,124 220,123 221,122 222,121 223,122 224,123 225,122 226,121 227,120 228,121 229,120 230,119 231,118 232,117 233,118 234,119 235,118 236,119 237,120 238,121 239,120 240,121 241,122 242,121 243,122 244,121 245,122 246,123 247,122 248,121 249,122 250,121 251,120 252,121 253,120 254,121 255,120 256,119 257,118 258,117 259,116 260,115 261,114 262,115 263,114 264,115 265,114 266,115 267,114 268,113 269,114 270,115 271,114 272,115 273,116 274,117 275,116 276,117 277,118 278,119 279,120 280,119 281,118 282,119 283,120 284,121 285,120 286,121 287,122 288,121 289,122 290,123 291,122 292,121 293,122 294,123 295,124 296,125 297,124 298,123 299,124 300,123 301,122 302,121 303,122 304,121 305,120 306,121 307,122 308,121 309,120 310,119 311,118 312,117 313,118 314,117 315,116 316,117 317,116 318,117 319,116 320,117 321,116 322,117 323,118 324,117 325,118 326,119 327,120 328,121 329,122 330,121 331,120 332,119 333,118 334,119 335,120 336,119 337,118 338,117 339,118 340,119 341,118 342,117 343,118 344,119 345,120 346,119 347,120 348,119 349,118 350,119 351,118 352,117 353,116 354,115 355,116 356,115 357,114 358,113 359,114 360,113 361,112 362,113 363,114 364,113 365,114 366,113 367,112 368,113 369,112 370,113 371,112 372,113 373,112 374,113 375,112 376,113 377,112 378,113 379,114 380,113 381,114 382,115 383,114 384,115 385,114 386,113 387,114 388,115 389,116 390,115 391,116 392,115 393,116 394,117 395,118 396,117 397,116 398,115 399,116 400,117 400,200 " style="fill:rgb(55,7,24);stroke:rgb(0,0,0)"></polygon></svg>